Coordinates
version=1
nRows=15
nColumns=38
inDegrees=yes

Units are S.I. units (second, meters, Newtons, ...)
Angles are in degrees.

endheader
time	pelvis_tilt	pelvis_list	pelvis_rotation	pelvis_tx	pelvis_ty	pelvis_tz	hip_flexion_r	hip_adduction_r	hip_rotation_r	knee_angle_r	ankle_angle_r	subtalar_angle_r	mtp_angle_r	hip_flexion_l	hip_adduction_l	hip_rotation_l	knee_angle_l	ankle_angle_l	subtalar_angle_l	mtp_angle_l	lumbar_extension	lumbar_bending	lumbar_rotation	arm_flex_r	arm_add_r	arm_rot_r	elbow_flex_r	pro_sup_r	wrist_flex_r	wrist_dev_r	arm_flex_l	arm_add_l	arm_rot_l	elbow_flex_l	pro_sup_l	wrist_flex_l	wrist_dev_l
      4.15500000	     -1.43474263	    -10.77483389	     87.97033144	     -0.18715130	      1.11782094	     -0.52085999	    -11.12887535	      0.30283861	      1.19825666	    -13.58861576	    -14.31467385	      0.00000000	      0.00000000	     41.66616472	     -0.75934178	     -4.08714377	    -48.97260835	      3.13780018	      0.00000000	      0.00000000	     -6.25003711	     -5.50074783	     18.22083206	      0.00000000	      0.00000000	      0.00000000	     90.00000000	     90.00000000	      0.00000000	      0.00000000	      0.00000000	      0.00000000	      0.00000000	     90.00000000	     90.00000000	      0.00000000	      0.00000000
      4.16000000	     -1.11218366	    -10.69093966	     88.07494646	     -0.18744999	      1.11993193	     -0.52228208	    -11.78905963	      0.54355321	      1.44127887	    -13.83328694	    -15.84565544	      0.00000000	      0.00000000	     40.77448216	     -0.76928102	     -3.57392323	    -45.33989700	      3.11004422	      0.00000000	      0.00000000	     -6.20414735	     -5.17687332	     18.20486277	      0.00000000	      0.00000000	      0.00000000	     90.00000000	     90.00000000	      0.00000000	      0.00000000	      0.00000000	      0.00000000	      0.00000000	     90.00000000	     90.00000000	      0.00000000	      0.00000000
      4.16500000	     -0.74147914	    -10.54418907	     88.13868102	     -0.18769634	      1.12184913	     -0.52368549	    -12.40482650	      0.84808667	      1.90638017	    -14.38721622	    -16.98269051	      0.00000000	      0.00000000	     39.76454774	     -0.84091283	     -2.98800864	    -41.67646109	      3.02468409	      0.00000000	      0.00000000	     -6.23491132	     -4.80083782	     18.23089162	      0.00000000	      0.00000000	      0.00000000	     90.00000000	     90.00000000	      0.00000000	      0.00000000	      0.00000000	      0.00000000	      0.00000000	     90.00000000	     90.00000000	      0.00000000	      0.00000000
      4.17000000	     -0.33038137	    -10.33918395	     88.15992502	     -0.18787563	      1.12357513	     -0.52509230	    -12.97536976	      1.21068106	      2.56872462	    -15.24866632	    -17.71631868	      0.00000000	      0.00000000	     38.65025075	     -0.97764630	     -2.33609665	    -38.01386421	      2.88369822	      0.00000000	      0.00000000	     -6.33903761	     -4.38450897	     18.29577681	      0.00000000	      0.00000000	      0.00000000	     90.00000000	     90.00000000	      0.00000000	      0.00000000	      0.00000000	      0.00000000	      0.00000000	     90.00000000	     90.00000000	      0.00000000	      0.00000000
      4.17500000	      0.11127340	    -10.08160318	     88.13720730	     -0.18796999	      1.12509194	     -0.52651342	    -13.49754941	      1.62219976	      3.39065183	    -16.40940290	    -18.06248502	      0.00000000	      0.00000000	     37.45051688	     -1.18069977	     -1.62964804	    -34.38918446	      2.69475572	      0.00000000	      0.00000000	     -6.51193493	     -3.94231914	     18.39453989	      0.00000000	      0.00000000	      0.00000000	     90.00000000	     90.00000000	      0.00000000	      0.00000000	      0.00000000	      0.00000000	      0.00000000	     90.00000000	     90.00000000	      0.00000000	      0.00000000
      4.18000000	      0.57167902	     -9.77822239	     88.06974852	     -0.18796269	      1.12636521	     -0.52793893	    -13.96605069	      2.07046551	      4.32496746	    -17.85603836	    -18.06064291	      0.00000000	      0.00000000	     36.18892638	     -1.44816165	     -0.88481036	    -30.84366290	      2.47108954	      0.00000000	      0.00000000	     -6.74787906	     -3.49062582	     18.52062912	      0.00000000	      0.00000000	      0.00000000	     90.00000000	     90.00000000	      0.00000000	      0.00000000	      0.00000000	      0.00000000	      0.00000000	     90.00000000	     90.00000000	      0.00000000	      0.00000000
      4.18500000	      1.03745613	     -9.43716196	     87.95818620	     -0.18784286	      1.12735994	     -0.52933491	    -14.37388540	      2.54113060	      5.31912754	    -19.57136436	    -17.76887463	      0.00000000	      0.00000000	     34.89264893	     -1.77423532	     -0.12203762	    -27.42094485	      2.23047675	      0.00000000	      0.00000000	     -7.04011512	     -3.04686489	     18.66619412	      0.00000000	      0.00000000	      0.00000000	     90.00000000	     90.00000000	      0.00000000	      0.00000000	      0.00000000	      0.00000000	      0.00000000	     90.00000000	     90.00000000	      0.00000000	      0.00000000
      4.19000000	      1.49446096	     -9.06802387	     87.80532477	     -0.18760788	      1.12805601	     -0.53064859	    -14.71299887	      3.01876716	      6.31980966	    -21.53549308	    -17.25685521	      0.00000000	      0.00000000	     33.59084475	     -2.14878025	      0.63464764	    -24.16503991	      1.99337758	      0.00000000	      0.00000000	     -7.38089321	     -2.62858411	     18.82236143	      0.00000000	      0.00000000	      0.00000000	     90.00000000	     90.00000000	      0.00000000	      0.00000000	      0.00000000	      0.00000000	      0.00000000	     90.00000000	     90.00000000	      0.00000000	      0.00000000
      4.19500000	      1.92888428	     -8.68164448	     87.61668767	     -0.18726340	      1.12845385	     -0.53182096	    -14.97482860	      3.48795332	      7.27731796	    -23.72675322	    -16.59786503	      0.00000000	      0.00000000	     32.31282832	     -2.55724668	      1.35879911	    -21.11812170	      1.78045487	      0.00000000	      0.00000000	     -7.76146845	     -2.25245233	     18.97950525	      0.00000000	      0.00000000	      0.00000000	     90.00000000	     90.00000000	      0.00000000	      0.00000000	      0.00000000	      0.00000000	      0.00000000	     90.00000000	     90.00000000	      0.00000000	      0.00000000
      4.20000000	      2.32831156	     -8.28945181	     87.40064951	     -0.18682270	      1.12856855	     -0.53280213	    -15.15080375	      3.93425250	      8.14930248	    -26.12240133	    -15.86113798	      0.00000000	      0.00000000	     31.08629909	     -2.98108951	      2.02310995	    -18.31831988	      1.60983490	      0.00000000	      0.00000000	     -8.17211688	     -1.93333927	     19.12751141	      0.00000000	      0.00000000	      0.00000000	     90.00000000	     90.00000000	      0.00000000	      0.00000000	      0.00000000	      0.00000000	      0.00000000	     90.00000000	     90.00000000	      0.00000000	      0.00000000
      4.20500000	      2.68241652	     -7.90261212	     87.16802266	     -0.18630697	      1.12841807	     -0.53356412	    -15.23284117	      4.34500089	      8.90339000	    -28.69924828	    -15.10563945	      0.00000000	      0.00000000	     29.93587275	     -3.39871109	      2.60134191	    -15.79770516	      1.49454381	      0.00000000	      0.00000000	     -8.60222165	     -1.68355365	     19.25603615	      0.00000000	      0.00000000	      0.00000000	     90.00000000	     90.00000000	      0.00000000	      0.00000000	      0.00000000	      0.00000000	      0.00000000	     90.00000000	     90.00000000	      0.00000000	      0.00000000
      4.21000000	      2.98314376	     -7.53121149	     86.93112241	     -0.18574546	      1.12801205	     -0.53410647	    -15.21387599	      4.70978154	      9.51850481	    -31.43426592	    -14.37598826	      0.00000000	      0.00000000	     28.88204366	     -3.78689376	      3.07048091	    -13.58069516	      1.44054055	      0.00000000	      0.00000000	     -9.04047356	     -1.51231019	     19.35476468	      0.00000000	      0.00000000	      0.00000000	     90.00000000	     90.00000000	      0.00000000	      0.00000000	      0.00000000	      0.00000000	      0.00000000	     90.00000000	     90.00000000	      0.00000000	      0.00000000
      4.21500000	      3.22445418	     -7.18369143	     86.70247195	     -0.18517345	      1.12734629	     -0.53445292	    -15.08842087	      5.02048160	      9.98486711	    -34.30517508	    -13.70077994	      0.00000000	      0.00000000	     27.94060324	     -4.12255990	      3.41288518	    -11.68309647	      1.44566497	      0.00000000	      0.00000000	     -9.47521100	     -1.42546783	     19.41367741	      0.00000000	      0.00000000	      0.00000000	     90.00000000	     90.00000000	      0.00000000	      0.00000000	      0.00000000	      0.00000000	      0.00000000	     90.00000000	     90.00000000	      0.00000000	      0.00000000
      4.22000000	      3.40183126	     -6.86664860	     86.49339450	     -0.18462721	      1.12640433	     -0.53464008	    -14.85309110	      5.27093171	     10.30284834	    -37.29095712	    -13.09314349	      0.00000000	      0.00000000	     27.12246492	     -4.38460495	      3.61812762	    -10.11194762	      1.49965849	      0.00000000	      0.00000000	     -9.89490034	     -1.42554795	     19.42333212	      0.00000000	      0.00000000	      0.00000000	     90.00000000	     90.00000000	      0.00000000	      0.00000000	      0.00000000	      0.00000000	      0.00000000	     90.00000000	     90.00000000	      0.00000000	      0.00000000
      4.22500000	      3.51175037	     -6.58493239	     86.31275790	     -0.18413756	      1.12516521	     -0.53470298	    -14.50698752	      5.45626953	     10.48100019	    -40.37220187	    -12.55305040	      0.00000000	      0.00000000	     26.43383661	     -4.55552394	      3.68422156	     -8.86623365	      1.58525019	      0.00000000	      0.00000000	    -10.28873503	     -1.51200872	     19.37516895	      0.00000000	      0.00000000	      0.00000000	     90.00000000	     90.00000000	      0.00000000	      0.00000000	      0.00000000	      0.00000000	      0.00000000	     90.00000000	     90.00000000	      0.00000000	      0.00000000
